<svg width="680" viewBox="0 0 680 340" xmlns="http://www.w3.org/2000/svg">
  <defs>
    <linearGradient id="grad1" x1="0%" y1="0%" x2="100%" y2="100%">
      <stop offset="0%" style="stop-color:#c026d3"/>
      <stop offset="100%" style="stop-color:#be123c"/>
    </linearGradient>
    <linearGradient id="grad2" x1="0%" y1="0%" x2="100%" y2="100%">
      <stop offset="0%" style="stop-color:#c026d3"/>
      <stop offset="100%" style="stop-color:#be123c"/>
    </linearGradient>
  </defs>

  <!-- FLUX box -->
  <rect x="190" y="30" width="300" height="110" rx="6" fill="black"/>
  <rect x="196" y="36" width="288" height="98" rx="4" fill="url(#grad1)"/>

  <!-- F -->
  <rect x="218" y="56" width="10" height="56" fill="white"/>
  <rect x="228" y="56" width="30" height="12" fill="white"/>
  <rect x="228" y="78" width="22" height="12" fill="white"/>
  <!-- L -->
  <rect x="272" y="56" width="10" height="56" fill="white"/>
  <rect x="282" y="100" width="28" height="12" fill="white"/>
  <!-- U -->
  <rect x="322" y="56" width="10" height="56" fill="white"/>
  <rect x="332" y="100" width="20" height="12" fill="white"/>
  <rect x="352" y="56" width="10" height="56" fill="white"/>
  <!-- X -->
  <rect x="376" y="56" width="11" height="22" fill="white"/>
  <rect x="399" y="56" width="11" height="22" fill="white"/>
  <rect x="383" y="78" width="20" height="12" fill="white"/>
  <rect x="376" y="90" width="11" height="22" fill="white"/>
  <rect x="399" y="90" width="11" height="22" fill="white"/>

  <!-- SERVICES box -->
  <rect x="40" y="170" width="600" height="130" rx="6" fill="black"/>
  <rect x="46" y="176" width="588" height="118" rx="4" fill="url(#grad2)"/>

  <!-- S -->
  <rect x="68" y="198" width="38" height="12" fill="white"/>
  <rect x="68" y="210" width="12" height="12" fill="white"/>
  <rect x="68" y="222" width="38" height="12" fill="white"/>
  <rect x="94" y="234" width="12" height="12" fill="white"/>
  <rect x="68" y="246" width="38" height="12" fill="white"/>
  <!-- E -->
  <rect x="120" y="198" width="12" height="60" fill="white"/>
  <rect x="132" y="198" width="30" height="12" fill="white"/>
  <rect x="132" y="222" width="24" height="12" fill="white"/>
  <rect x="132" y="246" width="30" height="12" fill="white"/>
  <!-- R -->
  <rect x="176" y="198" width="12" height="60" fill="white"/>
  <rect x="188" y="198" width="26" height="12" fill="white"/>
  <rect x="214" y="210" width="12" height="12" fill="white"/>
  <rect x="188" y="222" width="26" height="12" fill="white"/>
  <rect x="210" y="234" width="16" height="24" fill="white"/>
  <!-- V -->
  <rect x="240" y="198" width="12" height="36" fill="white"/>
  <rect x="274" y="198" width="12" height="36" fill="white"/>
  <rect x="252" y="234" width="12" height="12" fill="white"/>
  <rect x="262" y="234" width="12" height="12" fill="white"/>
  <rect x="252" y="246" width="12" height="12" fill="white"/>
  <!-- I -->
  <rect x="300" y="198" width="26" height="12" fill="white"/>
  <rect x="307" y="210" width="12" height="36" fill="white"/>
  <rect x="300" y="246" width="26" height="12" fill="white"/>
  <!-- C -->
  <rect x="340" y="198" width="40" height="12" fill="white"/>
  <rect x="340" y="210" width="12" height="36" fill="white"/>
  <rect x="340" y="246" width="40" height="12" fill="white"/>
  <!-- E -->
  <rect x="396" y="198" width="12" height="60" fill="white"/>
  <rect x="408" y="198" width="30" height="12" fill="white"/>
  <rect x="408" y="222" width="24" height="12" fill="white"/>
  <rect x="408" y="246" width="30" height="12" fill="white"/>
  <!-- S -->
  <rect x="452" y="198" width="38" height="12" fill="white"/>
  <rect x="452" y="210" width="12" height="12" fill="white"/>
  <rect x="452" y="222" width="38" height="12" fill="white"/>
  <rect x="478" y="234" width="12" height="12" fill="white"/>
  <rect x="452" y="246" width="38" height="12" fill="white"/>

  <!-- Corner dots on FLUX box -->
  <rect x="190" y="30" width="8" height="8" fill="black"/>
  <rect x="482" y="30" width="8" height="8" fill="black"/>
  <rect x="190" y="132" width="8" height="8" fill="black"/>
  <rect x="482" y="132" width="8" height="8" fill="black"/>
</svg>
